<svg width="145" height="151" viewBox="0 0 145 151" fill="none" xmlns="http://www.w3.org/2000/svg">
<g id="File / File_Add">
<path id="Vector" d="M72.5002 113.25V94.375M72.5002 94.375V75.5M72.5002 94.375H54.3752M72.5002 94.375H90.6252M78.5418 18.8805C77.9649 18.875 77.3171 18.875 76.5766 18.875H49.543C42.7757 18.875 39.3895 18.875 36.8048 20.2465C34.5311 21.4529 32.684 23.3765 31.5255 25.7442C30.2085 28.4359 30.2085 31.9622 30.2085 39.0096V111.993C30.2085 119.04 30.2085 122.562 31.5255 125.254C32.684 127.621 34.5311 129.548 36.8048 130.755C39.387 132.125 42.7691 132.125 49.5234 132.125L95.4772 132.125C102.231 132.125 105.608 132.125 108.191 130.755C110.464 129.548 112.318 127.621 113.476 125.254C114.792 122.565 114.792 119.048 114.792 112.014V58.6741C114.792 57.902 114.792 57.2265 114.786 56.625M78.5418 18.8805C80.2676 18.8968 81.3593 18.9621 82.4015 19.2227C83.6344 19.5309 84.8122 20.0406 85.8933 20.7306C87.1123 21.5085 88.1591 22.5985 90.2476 24.7734L109.131 44.4379C111.221 46.6142 112.26 47.6994 113.007 48.9693C113.669 50.0951 114.16 51.3227 114.456 52.6067C114.706 53.6916 114.77 54.8288 114.786 56.625M78.5418 18.8805V36.4917C78.5418 43.539 78.5418 47.0602 79.8588 49.7519C81.0173 52.1196 82.8645 54.0484 85.1381 55.2548C87.7203 56.625 91.1024 56.625 97.8565 56.625H114.786M114.786 56.625H114.793" stroke="black" stroke-width="2" stroke-linecap="round" stroke-linejoin="round"/>
</g>
</svg>
