<svg width="152" height="144" viewBox="0 0 152 144" fill="none" xmlns="http://www.w3.org/2000/svg">
<g id="Interface / Log_Out">
<path id="Vector" d="M76.0002 90L95.0002 72M95.0002 72L76.0002 54M95.0002 72H25.3335M57.0002 43.4915V43.2012C57.0002 36.4805 57.0002 33.1177 58.3807 30.5508C59.5951 28.2928 61.5315 26.4584 63.9149 25.3079C66.6244 24 70.1741 24 77.2681 24H106.401C113.495 24 117.037 24 119.747 25.3079C122.13 26.4584 124.073 28.2928 125.288 30.5508C126.667 33.1152 126.667 36.474 126.667 43.1815V100.821C126.667 107.529 126.667 110.883 125.288 113.447C124.073 115.705 122.13 117.543 119.747 118.693C117.04 120 113.5 120 106.42 120H77.2473C70.1671 120 66.6218 120 63.9149 118.693C61.5315 117.543 59.5951 115.703 58.3807 113.446C57.0002 110.879 57.0002 107.521 57.0002 100.8V100.5" stroke="black" stroke-width="2" stroke-linecap="round" stroke-linejoin="round"/>
</g>
</svg>
