<svg width="166" height="174" viewBox="0 0 166 174" fill="none" xmlns="http://www.w3.org/2000/svg">
<g id="File / Note_Edit">
<path id="Vector" d="M69.1679 29H49.8012C42.0538 29 38.1772 29 35.2181 30.5804C32.6152 31.9706 30.5005 34.1872 29.1742 36.9155C27.6665 40.0172 27.6665 44.0807 27.6665 52.2014V121.801C27.6665 129.922 27.6665 133.98 29.1742 137.082C30.5005 139.811 32.6152 142.031 35.2181 143.421C38.1743 145 42.0462 145 49.7785 145H116.221C123.953 145 127.82 145 130.776 143.421C133.379 142.031 135.501 139.808 136.827 137.08C138.333 133.981 138.333 129.927 138.333 121.822V101.5M110.667 36.25L69.1665 79.75V101.5H89.9165L131.417 58M110.667 36.25L131.417 14.5L152.167 36.25L131.417 58M110.667 36.25L131.417 58" stroke="black" stroke-width="2" stroke-linecap="round" stroke-linejoin="round"/>
</g>
</svg>
